<?xml version="1.0" encoding="UTF-8" standalone="no"?>
<!-- Created with Inkscape (http://www.inkscape.org/) -->

<svg
   xmlns:dc="http://purl.org/dc/elements/1.1/"
   xmlns:cc="http://creativecommons.org/ns#"
   xmlns:rdf="http://www.w3.org/1999/02/22-rdf-syntax-ns#"
   xmlns:svg="http://www.w3.org/2000/svg"
   xmlns="http://www.w3.org/2000/svg"
   xmlns:sodipodi="http://sodipodi.sourceforge.net/DTD/sodipodi-0.dtd"
   xmlns:inkscape="http://www.inkscape.org/namespaces/inkscape"
   width="210mm"
   height="297mm"
   viewBox="0 0 210 297"
   version="1.1"
   id="svg8"
   inkscape:version="0.92.5 (2060ec1f9f, 2020-04-08)"
   sodipodi:docname="wizard.svg">
  <defs
     id="defs2" />
  <sodipodi:namedview
     id="base"
     pagecolor="#ffffff"
     bordercolor="#666666"
     borderopacity="1.0"
     inkscape:pageopacity="0.0"
     inkscape:pageshadow="2"
     inkscape:zoom="0.24748737"
     inkscape:cx="213.15176"
     inkscape:cy="807.58358"
     inkscape:document-units="mm"
     inkscape:current-layer="g1230"
     showgrid="false"
     showguides="false"
     inkscape:window-width="1848"
     inkscape:window-height="1016"
     inkscape:window-x="321"
     inkscape:window-y="1107"
     inkscape:window-maximized="1" />
  <metadata
     id="metadata5">
    <rdf:RDF>
      <cc:Work
         rdf:about="">
        <dc:format>image/svg+xml</dc:format>
        <dc:type
           rdf:resource="http://purl.org/dc/dcmitype/StillImage" />
        <dc:title></dc:title>
      </cc:Work>
    </rdf:RDF>
  </metadata>
  <g
     inkscape:label="hat"
     inkscape:groupmode="layer"
     id="layer1"
     style="display:inline"
     sodipodi:insensitive="true">
    <path
       style="display:inline;fill:#161095;fill-opacity:1;stroke:#000000;stroke-width:0.44214904px;stroke-linecap:butt;stroke-linejoin:miter;stroke-opacity:1"
       d="m -72.571427,107.25597 c 0,0 -15.74329,-155.094815 27.98808,-195.236995 43.73136013,-40.142185 54.2268801,-80.284365 59.47465,-160.568715 5.24777,-80.28437 -108.45376,-127.72512 -103.20602,-204.3602 5.24777,-76.63508 113.70154,-173.34124 113.70154,-173.34124 0,0 -36.73433,109.47868 5.24777,164.21802 41.9821,54.73933 167.928427,127.72513 209.910517,215.30806 41.98213,87.58294 157.9194,223.181545 153.303,345.145255"
       id="path947"
       inkscape:connector-curvature="0" />
    <path
       style="display:inline;opacity:0.98999999;fill:#0a0766;fill-opacity:1;stroke:none;stroke-width:1.75972772;stroke-miterlimit:4;stroke-dasharray:none;stroke-opacity:1"
       id="path943"
       sodipodi:type="arc"
       sodipodi:cx="176.20576"
       sodipodi:cy="114.55455"
       sodipodi:rx="595.12964"
       sodipodi:ry="299.24176"
       sodipodi:start="0"
       sodipodi:end="6.1552701"
       sodipodi:open="true"
       d="M 771.3354,114.55455 A 595.12964,299.24176 0 0 1 195.23405,413.64331 595.12964,299.24176 0 0 1 -417.70708,133.68029 595.12964,299.24176 0 0 1 119.19871,-183.31119 595.12964,299.24176 0 0 1 766.47319,76.381278" />
    <path
       style="display:inline;fill:none;stroke:#7c6fe9;stroke-width:5.76499987;stroke-linecap:butt;stroke-linejoin:miter;stroke-miterlimit:4;stroke-dasharray:none;stroke-opacity:1"
       d="m -322.03571,260.71428 c 0,0 -79.28446,-61.99656 -84.66667,-125.48809 -6.38662,-75.340135 75.59524,-178.404765 172.35715,-219.226195 96.76192,-40.821415 216.202383,-81.642835 355.29762,-86.178565 139.09524,-4.5357 341.69046,12.09524 453.57142,83.154755"
       id="path1161"
       inkscape:connector-curvature="0"
       sodipodi:nodetypes="csssc" />
    <path
       style="display:inline;fill:#110cae;fill-opacity:1;stroke:none;stroke-width:0.26458332px;stroke-linecap:butt;stroke-linejoin:miter;stroke-opacity:1"
       d="m -43.845217,-507.33333 c 0,0 -16.63097,6.0476 -22.67857,30.2381 -6.04764,24.19047 -6.04764,60.47618 9.07142,58.96426 15.11903,-1.51187 31.75,-24.19046 30.23809,-45.35712 -1.51191,-21.16667 6.04761,-43.84524 -16.63094,-43.84524 z"
       id="path1163"
       inkscape:connector-curvature="0" />
    <path
       style="display:inline;fill:#120db5;fill-opacity:1;stroke:#000000;stroke-width:0.26458332px;stroke-linecap:butt;stroke-linejoin:miter;stroke-opacity:1"
       d="m 37.797633,-251.82142 c 0,0 0,0 72.571427,-3.02382 13.67901,-0.56996 7.55951,65.01191 7.55951,65.01191 0,0 -54.428567,-18.14287 -89.202357,4.5357 -12.66389,8.25905 -3.02382,-55.94046 9.07142,-66.52379 z"
       id="path1165"
       inkscape:connector-curvature="0"
       sodipodi:nodetypes="cscsc" />
    <path
       d="M 403.3157,65.618439 A 233.55005,126.43988 0 0 1 177.23303,191.99367 233.55005,126.43988 0 0 1 -63.306879,73.699718 233.55005,126.43988 0 0 1 147.39406,-60.240024 233.55005,126.43988 0 0 1 401.4076,49.488925"
       sodipodi:open="true"
       sodipodi:end="6.1552701"
       sodipodi:start="0"
       sodipodi:ry="126.43988"
       sodipodi:rx="233.55005"
       sodipodi:cy="65.618439"
       sodipodi:cx="169.76566"
       sodipodi:type="arc"
       id="path945"
       style="display:inline;opacity:0.98999999;fill:#361e37;fill-opacity:1;stroke:none;stroke-width:0.71657318;stroke-miterlimit:4;stroke-dasharray:none;stroke-opacity:1" />
  </g>
  <g
     inkscape:groupmode="layer"
     id="layer3"
     inkscape:label="head"
     sodipodi:insensitive="true"
     style="display:inline">
    <path
       style="opacity:0.98999999;fill:#f7dca1;fill-opacity:1;stroke:none;stroke-width:5.76499987;stroke-miterlimit:4;stroke-dasharray:none;stroke-opacity:1"
       id="path1210"
       sodipodi:type="arc"
       sodipodi:cx="54.174736"
       sodipodi:cy="105.38387"
       sodipodi:rx="52.036579"
       sodipodi:ry="83.136955"
       sodipodi:start="0"
       sodipodi:end="6.1552701"
       sodipodi:open="true"
       d="M 106.21132,105.38387 A 52.036579,83.136955 0 0 1 55.83852,188.47832 52.036579,83.136955 0 0 1 2.2445504,110.69749 52.036579,83.136955 0 0 1 49.190188,22.629212 52.036579,83.136955 0 0 1 105.78618,94.778369" />
    <path
       d="M 355.08694,135.99127 A 215.60553,237.0842 0 0 1 140.77103,373.07123 215.60553,237.0842 0 0 1 -76.108688,138.8274 215.60553,237.0842 0 0 1 135.61275,-101.05476 215.60553,237.0842 0 0 1 355.02524,130.31943"
       sodipodi:open="true"
       sodipodi:end="6.2592597"
       sodipodi:start="0"
       sodipodi:ry="237.0842"
       sodipodi:rx="215.60553"
       sodipodi:cy="135.99127"
       sodipodi:cx="139.48141"
       sodipodi:type="arc"
       id="path1216"
       style="opacity:0.98999999;fill:#f7dca1;fill-opacity:1;stroke:#000000;stroke-width:3.0999999;stroke-miterlimit:4;stroke-dasharray:none;stroke-opacity:1" />
    <path
       d="M 106.21132,105.38387 A 52.036579,83.136955 0 0 1 55.83852,188.47832 52.036579,83.136955 0 0 1 2.2445504,110.69749 52.036579,83.136955 0 0 1 49.190188,22.629212 52.036579,83.136955 0 0 1 105.78618,94.778369"
       sodipodi:open="true"
       sodipodi:end="6.1552701"
       sodipodi:start="0"
       sodipodi:ry="83.136955"
       sodipodi:rx="52.036579"
       sodipodi:cy="105.38387"
       sodipodi:cx="54.174736"
       sodipodi:type="arc"
       id="path1212"
       style="opacity:0.98999999;fill:#f7dca1;fill-opacity:1;stroke:#000000;stroke-width:3.0999999;stroke-miterlimit:4;stroke-dasharray:none;stroke-opacity:1" />
    <path
       style="opacity:0.98999999;fill:#f7dca1;fill-opacity:1;stroke:#000000;stroke-width:3.0999999;stroke-miterlimit:4;stroke-dasharray:none;stroke-opacity:1"
       id="path1214"
       sodipodi:type="arc"
       sodipodi:cx="131.99788"
       sodipodi:cy="102.31531"
       sodipodi:rx="65.934593"
       sodipodi:ry="93.293198"
       sodipodi:start="0"
       sodipodi:end="6.216433"
       sodipodi:open="true"
       d="M 197.93247,102.31531 A 65.934593,93.293198 0 0 1 133.09815,195.59551 65.934593,93.293198 0 0 1 66.100007,105.4285 65.934593,93.293198 0 0 1 128.69829,9.1390019 65.934593,93.293198 0 0 1 197.78563,96.092395" />
  </g>
  <g
     inkscape:groupmode="layer"
     id="layer2"
     inkscape:label="facial features"
     style="display:inline"
     sodipodi:insensitive="true">
    <g
       transform="translate(-1.5961874e-6,-8.452466e-6)"
       id="g921">
      <path
         sodipodi:open="true"
         d="M 90.714287,104.79911 A 34.017857,72.760414 0 0 1 56.792931,177.55923 34.017857,72.760414 0 0 1 22.679121,105.21192 34.017857,72.760414 0 0 1 56.406931,32.041331 34.017857,72.760414 0 0 1 90.712097,103.97351"
         sodipodi:end="6.2718382"
         sodipodi:start="0"
         sodipodi:ry="72.760414"
         sodipodi:rx="34.017857"
         sodipodi:cy="104.79911"
         sodipodi:cx="56.69643"
         sodipodi:type="arc"
         id="path815"
         style="opacity:0.98999999;fill:#f6f6f6;fill-opacity:1;stroke:#000000;stroke-width:1.46499991;stroke-miterlimit:4;stroke-dasharray:none;stroke-opacity:1" />
      <path
         d="M 58.586306,109.90179 A 18.142859,18.898808 0 0 1 41.023533,128.79093 18.142859,18.898808 0 0 1 22.337683,111.10968 18.142859,18.898808 0 0 1 38.705562,91.089882 18.142859,18.898808 0 0 1 58.43808,107.49094"
         sodipodi:open="true"
         sodipodi:end="6.1552706"
         sodipodi:start="0"
         sodipodi:ry="18.898808"
         sodipodi:rx="18.142859"
         sodipodi:cy="109.90179"
         sodipodi:cx="40.443447"
         sodipodi:type="arc"
         id="path820"
         style="opacity:0.98999999;fill:#000000;fill-opacity:1;stroke:none;stroke-width:1.17176557;stroke-miterlimit:4;stroke-dasharray:none;stroke-opacity:1" />
      <path
         sodipodi:nodetypes="cscsc"
         inkscape:connector-curvature="0"
         id="path824"
         d="m 30.085601,117.08334 c 0,0 -5.885106,-8.15576 1.307804,-15.69984 7.192903,-7.544074 15.475639,-3.670094 15.475639,-3.670094 0,0 -9.399588,1.41307 -12.206139,6.116824 -5.231205,8.76744 -4.577304,13.25311 -4.577304,13.25311 z"
         style="fill:#ffffff;fill-opacity:1;stroke:none;stroke-width:0.14756908px;stroke-linecap:butt;stroke-linejoin:miter;stroke-opacity:1" />
      <path
         inkscape:connector-curvature="0"
         id="path850"
         d="M 46.113094,33.928571 44.60119,50.937498 55.562499,61.142855 52.53869,75.505952"
         style="fill:none;stroke:#ec0000;stroke-width:0.76499999;stroke-linecap:butt;stroke-linejoin:miter;stroke-miterlimit:4;stroke-dasharray:none;stroke-opacity:1" />
      <path
         inkscape:connector-curvature="0"
         id="path852"
         d="M 44.60119,50.937498 37.041666,62.276785 31.75,66.056546 l 5.669642,5.291667"
         style="fill:none;stroke:#ec0000;stroke-width:0.76499999;stroke-linecap:butt;stroke-linejoin:miter;stroke-miterlimit:4;stroke-dasharray:none;stroke-opacity:1" />
      <path
         inkscape:connector-curvature="0"
         id="path854"
         d="m 78.619047,55.095237 -9.827381,9.071428 v 7.181548 l -6.047618,7.181548"
         style="fill:none;stroke:#ec0000;stroke-width:0.76499999;stroke-linecap:butt;stroke-linejoin:miter;stroke-miterlimit:4;stroke-dasharray:none;stroke-opacity:1" />
      <path
         inkscape:connector-curvature="0"
         id="path856"
         d="M 73.705357,96.672618 64.255951,94.026785"
         style="fill:none;stroke:#ec0000;stroke-width:0.76499999;stroke-linecap:butt;stroke-linejoin:miter;stroke-miterlimit:4;stroke-dasharray:none;stroke-opacity:1" />
      <path
         inkscape:connector-curvature="0"
         id="path858"
         d="m 78.619047,133.71428 -10.961309,1.13393"
         style="fill:none;stroke:#ec0000;stroke-width:0.76499999;stroke-linecap:butt;stroke-linejoin:miter;stroke-miterlimit:4;stroke-dasharray:none;stroke-opacity:1" />
      <path
         inkscape:connector-curvature="0"
         id="path860"
         d="m 78.997023,159.41666 -11.339285,-7.9375 0.377976,-7.18154 -9.449406,-3.02381 -0.755951,-6.04762"
         style="fill:none;stroke:#ec0000;stroke-width:0.76499999;stroke-linecap:butt;stroke-linejoin:miter;stroke-miterlimit:4;stroke-dasharray:none;stroke-opacity:1" />
      <path
         inkscape:connector-curvature="0"
         id="path862"
         d="m 67.657738,151.47916 -11.339287,1.88989 -6.047618,-6.4256 -4.157739,-4.15774 V 138.25"
         style="fill:none;stroke:#ec0000;stroke-width:0.76499999;stroke-linecap:butt;stroke-linejoin:miter;stroke-miterlimit:4;stroke-dasharray:none;stroke-opacity:1" />
      <path
         inkscape:connector-curvature="0"
         id="path864"
         d="m 55.562499,176.04762 -12.095239,-15.11905 0.755954,-7.18155 -5.291666,-4.53571"
         style="fill:none;stroke:#ec0000;stroke-width:0.76499999;stroke-linecap:butt;stroke-linejoin:miter;stroke-miterlimit:4;stroke-dasharray:none;stroke-opacity:1" />
      <path
         inkscape:connector-curvature="0"
         id="path866"
         d="m 27.970239,143.54166 4.913688,-2.64583 v -7.9375 l 6.047621,-1.88988"
         style="fill:none;stroke:#ec0000;stroke-width:0.76499999;stroke-linecap:butt;stroke-linejoin:miter;stroke-miterlimit:4;stroke-dasharray:none;stroke-opacity:1" />
    </g>
    <path
       style="fill:#ffffff;fill-opacity:1;stroke:#000000;stroke-width:1.16499996;stroke-linecap:butt;stroke-linejoin:miter;stroke-miterlimit:4;stroke-dasharray:none;stroke-opacity:1"
       d="m 68.791668,225.18452 c 0,0 26.45833,-24.19048 56.696422,-21.92263 30.23809,2.26786 74.08333,26.45835 74.08333,26.45835 l -22.67855,-2.26786 c 0,0 13.60713,-0.75595 19.65476,8.31547 6.04761,9.07143 18.89879,81.64285 34.77379,80.88691 15.875,-0.75594 45.35715,-9.82739 45.35715,-9.82739 0,0 -4.53572,24.19048 -27.2143,25.70239 -22.67855,1.51191 -58.2083,-23.43452 -55.94045,-18.14285 2.26784,5.29167 17.3869,4.5357 17.3869,21.16667 0,16.63094 -20.41072,73.32736 -20.41072,73.32736 l -7.55952,-22.67857 c 0,0 -0.75597,58.20833 -23.43451,95.25 -22.67859,37.04166 -69.547642,42.33333 -71.815492,61.98812 -2.26786,19.65475 -9.82738,42.33333 -9.82738,42.33333 l -15.875,-36.28573 c 0,0 -2.26786,89.95834 -6.04762,74.83928 -8.17687,-32.70753 -40.06548,-30.23809 -40.06548,-30.23809 -8.4787996,16.95762 -6.0476196,41.57736 -6.0476196,41.57736 -19.76775,-1.97675 -13.641,-60.47957 -27.9702424,-43.08927 -14.341282,17.4049 -1.5119,39.30954 -1.5119,39.30954 -45.735915,-47.23376 10.7031824,-62.80761 -6.047619,-148.92263 16.6309514,-43.84525 -8.315476,-69.54761 -8.315476,-69.54761 l -15.119048,22.67857 c 0,0 -15.875,-21.92263 -12.095237,-45.35715 3.779761,-23.43451 7.559525,-44.60118 7.559525,-44.60118 l -15.875003,35.52976 c 0,0 -28.406074,-56.7018 -3.023809,-77.10715 l 38.553572,-30.99403 c 0,0 -21.166666,21.16666 -49.136905,16.63094 -27.970236,-4.5357 -23.434516,-40.82143 -23.434516,-40.82143 0,0 20.410706,15.11903 27.970231,10.58333 7.559524,-4.53572 15.875,-21.16668 15.875,-21.16668 0,0 -11.339285,-12.09522 -21.922619,-11.33927 -10.583336,0.75595 -30.238092,0.75595 -30.238092,0.75595 0,0 24.946425,-27.21429 38.553568,-28.72619 13.607143,-1.5119 57.452382,13.60715 57.452382,13.60715 z"
       id="path925"
       inkscape:connector-curvature="0"
       sodipodi:nodetypes="csccsscscsccssccsscsccccsccscscscscscc" />
    <path
       style="fill:#f7dca1;fill-opacity:1;stroke:#000000;stroke-width:0.26458332px;stroke-linecap:butt;stroke-linejoin:miter;stroke-opacity:1"
       d="m 102.43155,143.54167 c 0,0 -169.484006,-4.22922 -162.529761,72.57143 9.068739,100.15254 174.247021,23.05655 166.309531,-27.59227"
       id="path891"
       inkscape:connector-curvature="0"
       sodipodi:nodetypes="csc" />
    <g
       id="g907"
       transform="translate(6.4255984,-1.5119125)">
      <path
         sodipodi:nodetypes="csssc"
         inkscape:connector-curvature="0"
         id="path817"
         d="m 165.1756,103.47619 c 0,42.08306 -19.97591,76.23154 -44.66315,76.35089 C 95.82521,179.94643 75.735993,145.99165 75.595962,103.90927 75.45593,61.826888 98.341695,27.485814 123.02814,27.127756 c 24.68644,-0.358059 41.86452,33.401922 42.14458,75.482274"
         style="opacity:0.98999999;fill:#f6f6f6;fill-opacity:1;stroke:#000000;stroke-width:1.46499991;stroke-miterlimit:4;stroke-dasharray:none;stroke-opacity:1" />
      <path
         style="opacity:0.98999999;fill:#000000;fill-opacity:1;stroke:none;stroke-width:1.12410891;stroke-miterlimit:4;stroke-dasharray:none;stroke-opacity:1"
         id="path822"
         sodipodi:type="arc"
         sodipodi:cx="94.305054"
         sodipodi:cy="107.82293"
         sodipodi:rx="17.575895"
         sodipodi:ry="17.953867"
         sodipodi:start="0"
         sodipodi:end="6.1552706"
         sodipodi:open="true"
         d="m 111.88095,107.82293 a 17.575895,17.953867 0 0 1 -17.013938,17.94469 17.575895,17.953867 0 0 1 -18.101918,-16.79719 17.575895,17.953867 0 0 1 15.856383,-19.01881 17.575895,17.953867 0 0 1 19.115883,15.581" />
      <path
         style="fill:#ffffff;fill-opacity:1;stroke:none;stroke-width:0.14756908px;stroke-linecap:butt;stroke-linejoin:miter;stroke-opacity:1"
         d="m 83.380244,115.57144 c 0,0 -5.885106,-8.15576 1.307804,-15.699845 7.192903,-7.544074 15.475642,-3.670094 15.475642,-3.670094 0,0 -9.399591,1.41307 -12.206142,6.116829 -5.231205,8.76744 -4.577304,13.25311 -4.577304,13.25311 z"
         id="path826"
         inkscape:connector-curvature="0"
         sodipodi:nodetypes="cscsc" />
      <path
         inkscape:connector-curvature="0"
         id="path828"
         d="m 125.86607,112.54762 7.55952,-4.15774 2.26786,-9.071428 12.47321,-0.377976 6.4256,-9.449406 8.69345,-6.425594"
         style="fill:none;stroke:#e41111;stroke-width:0.80000001;stroke-linecap:butt;stroke-linejoin:miter;stroke-miterlimit:4;stroke-dasharray:none;stroke-opacity:0.99928703" />
      <path
         inkscape:connector-curvature="0"
         id="path830"
         d="M 135.69345,99.318452 127,89.869046 115.66071,91.758928"
         style="fill:none;stroke:#e41111;stroke-width:0.80000001;stroke-linecap:butt;stroke-linejoin:miter;stroke-miterlimit:4;stroke-dasharray:none;stroke-opacity:0.99928703" />
      <path
         inkscape:connector-curvature="0"
         id="path832"
         d="m 148.16666,98.940476 v 15.119044 l -12.47321,9.44941"
         style="fill:none;stroke:#e41111;stroke-width:0.80000001;stroke-linecap:butt;stroke-linejoin:miter;stroke-miterlimit:4;stroke-dasharray:none;stroke-opacity:0.99928703" />
      <path
         inkscape:connector-curvature="0"
         id="path834"
         d="m 140.22916,169.24404 -13.60714,-15.11904 -1.88988,-11.33929 -9.07143,-6.04762"
         style="fill:none;stroke:#e41111;stroke-width:0.80000001;stroke-linecap:butt;stroke-linejoin:miter;stroke-miterlimit:4;stroke-dasharray:none;stroke-opacity:0.99928703" />
      <path
         inkscape:connector-curvature="0"
         id="path836"
         d="m 105.07738,141.27381 c 1.5119,-0.37798 5.66964,11.33928 5.66964,11.33928 l 15.875,1.51191"
         style="fill:none;stroke:#e41111;stroke-width:0.80000001;stroke-linecap:butt;stroke-linejoin:miter;stroke-miterlimit:4;stroke-dasharray:none;stroke-opacity:0.99928703" />
      <path
         inkscape:connector-curvature="0"
         id="path838"
         d="m 101.29762,170.75595 -2.26786,-7.9375 4.15774,-6.04762 -7.18155,-11.71726"
         style="fill:none;stroke:#e41111;stroke-width:0.80000001;stroke-linecap:butt;stroke-linejoin:miter;stroke-miterlimit:4;stroke-dasharray:none;stroke-opacity:0.99928703" />
      <path
         inkscape:connector-curvature="0"
         id="path840"
         d="m 92.22619,128.80059 -1.13393,5.29167 -7.181546,5.66964 c -3.401785,1.88989 -3.401785,3.02381 -3.401785,3.02381"
         style="fill:none;stroke:#e41111;stroke-width:0.80000001;stroke-linecap:butt;stroke-linejoin:miter;stroke-miterlimit:4;stroke-dasharray:none;stroke-opacity:0.99928703" />
      <path
         inkscape:connector-curvature="0"
         id="path842"
         d="m 144.00893,36.95238 -6.80357,18.898809 -17.38691,-3.401785 -5.29167,11.717261"
         style="fill:none;stroke:#e41111;stroke-width:0.80000001;stroke-linecap:butt;stroke-linejoin:miter;stroke-miterlimit:4;stroke-dasharray:none;stroke-opacity:0.99928703" />
      <path
         inkscape:connector-curvature="0"
         id="path844"
         d="m 137.20536,55.851189 -2.64584,14.363096 -11.71726,3.779761"
         style="fill:none;stroke:#e41111;stroke-width:0.80000001;stroke-linecap:butt;stroke-linejoin:miter;stroke-miterlimit:4;stroke-dasharray:none;stroke-opacity:0.99928703" />
      <path
         inkscape:connector-curvature="0"
         id="path846"
         d="m 86.178571,56.229165 2.267855,12.473215 -4.535712,10.205357 4.157737,5.669642"
         style="fill:none;stroke:#e41111;stroke-width:0.80000001;stroke-linecap:butt;stroke-linejoin:miter;stroke-miterlimit:4;stroke-dasharray:none;stroke-opacity:0.99928703" />
      <path
         inkscape:connector-curvature="0"
         id="path848"
         d="m 88.446424,68.70238 9.071432,1.511905 0.377976,11.717261"
         style="fill:none;stroke:#e41111;stroke-width:0.80000001;stroke-linecap:butt;stroke-linejoin:miter;stroke-miterlimit:4;stroke-dasharray:none;stroke-opacity:0.99928703" />
    </g>
    <path
       style="fill:#3d3d3d;fill-opacity:1;stroke:#000000;stroke-width:0.26458332px;stroke-linecap:butt;stroke-linejoin:miter;stroke-opacity:1"
       d="m 2.2678584,50.559514 c 0,0 6.80357,-34.395831 37.7976196,-38.175594 30.99405,-3.7797615 38.93155,19.276785 38.93155,19.276785 0,0 -9.44941,-48.002975 -43.08929,-39.6874995 C 2.2678584,0.28868155 2.2678584,50.559514 2.2678584,50.559514 Z"
       id="path887"
       inkscape:connector-curvature="0" />
    <path
       inkscape:connector-curvature="0"
       id="path889"
       d="m 82.776788,22.589277 c 0,0 9.4494,-15.8750005 40.443452,-19.6547625 30.99403,-3.77976095 48.38094,50.2708325 48.38094,50.2708325 0,0 -18.89879,-78.997023 -52.53868,-70.681545 -33.639882,8.315475 -36.285712,40.065475 -36.285712,40.065475 z"
       style="fill:#3d3d3d;fill-opacity:1;stroke:#000000;stroke-width:0.26458332px;stroke-linecap:butt;stroke-linejoin:miter;stroke-opacity:1"
       sodipodi:nodetypes="cscsc" />
    <path
       style="fill:none;stroke:#000000;stroke-width:1.06500006;stroke-linecap:butt;stroke-linejoin:miter;stroke-miterlimit:4;stroke-dasharray:none;stroke-opacity:1"
       d="m 14.363098,325.72618 c 0,0 -3.02381,52.91667 49.1369,40.06549 52.160712,-12.85118 68.791662,-62.74406 68.791662,-62.74406"
       id="path927"
       inkscape:connector-curvature="0" />
    <path
       style="fill:none;stroke:#000000;stroke-width:1.06500006;stroke-linecap:butt;stroke-linejoin:miter;stroke-miterlimit:4;stroke-dasharray:none;stroke-opacity:1"
       d="m 105.07738,272.80952 c 0,0 13.60714,-0.75594 29.48214,9.82739 15.87499,10.58333 21.92263,26.45833 21.92263,26.45833"
       id="path931"
       inkscape:connector-curvature="0" />
    <path
       style="fill:#8c4c4c;fill-opacity:1;stroke:#000000;stroke-width:1.06500006;stroke-linecap:butt;stroke-linejoin:miter;stroke-miterlimit:4;stroke-dasharray:none;stroke-opacity:1"
       d="m 111.88095,465.57737 c 0,0 40.06547,-35.52976 43.08929,-68.0357 3.02382,-32.50597 -31.75,-77.10715 -31.75,-77.10715 0,0 -3.40179,6.99256 -9.82738,13.22916 -6.4256,7.55952 -11.71726,12.47323 -11.71726,12.47323 0,0 23.05654,33.26191 23.81249,62.74403 0.75596,29.48215 -9.4494,40.44344 -9.4494,40.44344"
       id="path935"
       inkscape:connector-curvature="0"
       sodipodi:nodetypes="cscccsc" />
    <path
       style="fill:none;stroke:#000000;stroke-width:1.06500006;stroke-linecap:butt;stroke-linejoin:miter;stroke-miterlimit:4;stroke-dasharray:none;stroke-opacity:1"
       d="m 78.997028,478.05059 c -1.51191,-0.37798 -7.9375,-26.45833 -7.9375,-26.45833 0,0 12.85119,-7.55952 18.8988,3.77976 6.04762,11.3393 4.91369,12.85115 21.922622,10.20535"
       id="path937"
       inkscape:connector-curvature="0"
       sodipodi:nodetypes="cccc" />
    <path
       style="fill:none;stroke:#000000;stroke-width:1.06500006;stroke-linecap:butt;stroke-linejoin:miter;stroke-miterlimit:4;stroke-dasharray:none;stroke-opacity:1"
       d="m 99.785718,453.86011 c 0,0 -0.75596,-8.31546 9.449402,-6.80358 10.20535,1.51191 14.36309,7.9375 14.36309,7.9375"
       id="path939"
       inkscape:connector-curvature="0" />
    <path
       style="fill:none;stroke:#000000;stroke-width:1.06500006;stroke-linecap:butt;stroke-linejoin:miter;stroke-miterlimit:4;stroke-dasharray:none;stroke-opacity:1"
       d="m 79.374998,448.94643 c 4.53572,-6.4256 4.91369,-11.71726 14.3631,-9.8274 9.449402,1.8899 12.473212,7.55955 12.473212,7.55955"
       id="path941"
       inkscape:connector-curvature="0" />
  </g>
  <g
     style="display:inline"
     id="g1230"
     inkscape:groupmode="layer"
     inkscape:label="hat block">
    <path
       style="fill:#0a0766;fill-opacity:1;stroke:none;stroke-width:0.26458332px;stroke-linecap:butt;stroke-linejoin:miter;stroke-opacity:1"
       d="M -73.766388,-99.627977 370.97009,-108.1806 336.7596,-23.723432 c 0,0 -65.21376,-39.555889 -159.29264,-38.486811 C 83.38809,-61.141165 -4.2763125,-35.483291 -47.039435,3.0035199 -71.628232,-52.588543 -73.766388,-99.627977 -73.766388,-99.627977 Z"
       id="path1246"
       inkscape:connector-curvature="0"
       sodipodi:nodetypes="cccscc" />
  </g>
</svg>
